<svg id="Group_3021" data-name="Group 3021" xmlns="http://www.w3.org/2000/svg" width="396.179" height="90.355" viewBox="0 0 396.179 90.355">
  <g id="Group_3019" data-name="Group 3019" transform="translate(0 0)">
    <rect id="Rectangle_15660_1_" width="20.988" height="18.678" transform="translate(0 56.065)" fill="#dbe125"/>
    <g id="Group_3020" data-name="Group 3020" transform="translate(8.83)">
      <g id="Group_1254_1_" transform="translate(22.213)">
        <path id="Path_2265_1_" d="M26.917,30.238H-15.14a2.18,2.18,0,0,1-2.18-2.18,2.174,2.174,0,0,1,.488-1.384L4.206.816a2.163,2.163,0,0,1,3.385,0L28.619,26.673a2.185,2.185,0,0,1-.339,3.077,2.259,2.259,0,0,1-1.364.488ZM-10.55,25.867H22.337L5.9,5.645Z" transform="translate(17.32 0)" fill="#fff"/>
      </g>
      <g id="Group_1255_1_" transform="translate(0 37.198)">
        <path id="Path_2266_1_" d="M85.146,10.812H64.6V6.441h15.96l-17.5-21.556L42.632,10a2.17,2.17,0,0,1-3.057.329A2.561,2.561,0,0,1,39.247,10L18.836-15.115-1.545,10-4.93,7.248,17.134-19.944a2.226,2.226,0,0,1,1.693-.806,2.162,2.162,0,0,1,1.693.806L40.94,5.207,61.35-19.954a2.185,2.185,0,0,1,3.087-.3,2.118,2.118,0,0,1,.3.3l22.1,27.191A2.189,2.189,0,0,1,86.53,10.3a2.235,2.235,0,0,1-1.384.508Z" transform="translate(4.93 20.756)" fill="#fff"/>
      </g>
      <rect id="Rectangle_15661_1_" width="4.719" height="4.361" transform="translate(58.655 64.389)" fill="#fff"/>
      <path id="Path_2267_1_" d="M245.274,2.19h-9.289A10.477,10.477,0,0,0,225.56,12.664V32.04a10.479,10.479,0,0,0,10.424,10.424h9.289A10.479,10.479,0,0,0,255.7,32.04V12.624A10.481,10.481,0,0,0,245.274,2.19m.777,16.886V31.293a3.068,3.068,0,0,1-3.067,3.067h-4.739a2.972,2.972,0,0,1-3.126-2.808,2.423,2.423,0,0,1,0-.269V13.411a2.977,2.977,0,0,1,2.848-3.087h4.958a3.077,3.077,0,0,1,3.126,3.017v5.735Z" transform="translate(-9.812 -0.01)" fill="#fff"/>
      <path id="Path_2268_1_" d="M348.137,2.19l-8.065,16.03h-1.185L330.833,2.19H320.06l-2.25,40.264h9.817l2.26-26.4,6.064,15.214h7.059l6.063-15.214,2.26,26.4h9.827L358.92,2.19Z" transform="translate(-10.213 -0.01)" fill="#fff"/>
      <path id="Path_2269_1_" d="M112.63,25.91v8.115h6.541l1.6-8.115Z" transform="translate(-9.32 -0.113)" fill="#fff"/>
      <path id="Path_2270_1_" d="M171.388,2.19H161.74V42.454h23.736V34.33l-14.088.01Z" transform="translate(-9.534 -0.01)" fill="#fff"/>
      <path id="Path_2271_1_" d="M204.288,2.19H194.64V42.454h23.736V34.33l-14.088.01Z" transform="translate(-9.677 -0.01)" fill="#fff"/>
      <path id="Path_2272_1_" d="M380.531,26.076h10.225v-8.1H380.531V10.324h4.112V2.19H371.5V42.454h26.3V34.33H380.54V26.076Z" transform="translate(-10.446 -0.01)" fill="#fff"/>
      <path id="Path_2273_1_" d="M296.833,28.6,290.77,13.371h-7.059L277.647,28.6l-2.26-26.4H265.56l2.25,40.254h10.773l8.065-16.03h1.175l8.065,16.03H306.66L308.9,2.2h-9.807Z" transform="translate(-9.986 -0.01)" fill="#fff"/>
      <path id="Path_2274_1_" d="M130.358,2.19l-9.6,40.264h10.066l1.8-8.523h10.026l1.8,8.523h9.6L144.994,2.19Zm4.012,23.617,3.3-15.632,3.306,15.632Z" transform="translate(-9.356 -0.01)" fill="#fff"/>
      <g id="Group_3019-2" data-name="Group 3019" transform="translate(191.524 55.866)">
        <path id="Path_2587" data-name="Path 2587" d="M204.466,67.774a3.71,3.71,0,0,0,2.011-.468,1.7,1.7,0,0,0,.717-1.523,2.071,2.071,0,0,0-.229-1.016,2.258,2.258,0,0,0-.617-.687,3.883,3.883,0,0,0-.876-.478c-.329-.129-.677-.269-1.035-.418a11.978,11.978,0,0,1-1.225-.558,4.36,4.36,0,0,1-.926-.647,2.311,2.311,0,0,1-.577-.816,2.778,2.778,0,0,1-.2-1.085,2.555,2.555,0,0,1,.936-2.151,4.147,4.147,0,0,1,2.609-.737,6.369,6.369,0,0,1,.876.06,6.052,6.052,0,0,1,.806.169c.249.07.478.149.687.229a3.516,3.516,0,0,1,.518.269l-.378.906a4.049,4.049,0,0,0-1.125-.508,5.024,5.024,0,0,0-1.424-.189,4.231,4.231,0,0,0-.966.1,2.023,2.023,0,0,0-.757.339,1.73,1.73,0,0,0-.5.577,1.862,1.862,0,0,0-.179.846,1.729,1.729,0,0,0,.189.856,1.838,1.838,0,0,0,.538.607,3.884,3.884,0,0,0,.806.458c.309.139.637.279,1.006.428.438.179.846.358,1.235.538a4.3,4.3,0,0,1,1.016.637,2.663,2.663,0,0,1,.687.9,2.937,2.937,0,0,1,.259,1.294,2.6,2.6,0,0,1-1.045,2.25,4.784,4.784,0,0,1-2.828.747,8.236,8.236,0,0,1-1.165-.08,6.654,6.654,0,0,1-.936-.2,5.029,5.029,0,0,1-.7-.249,4.783,4.783,0,0,1-.448-.219l.349-.936c.109.06.249.139.428.219a4.491,4.491,0,0,0,.637.249,5.594,5.594,0,0,0,.826.2A4.246,4.246,0,0,0,204.466,67.774Z" transform="translate(-201.23 -56.115)" fill="#fff"/>
        <path id="Path_2588" data-name="Path 2588" d="M209.81,64.361a5.2,5.2,0,0,1,.309-1.892,4.079,4.079,0,0,1,.816-1.344,3.336,3.336,0,0,1,1.145-.806,3.424,3.424,0,0,1,1.334-.259,3.1,3.1,0,0,1,2.409.986,4.42,4.42,0,0,1,.9,3.047,2.259,2.259,0,0,1-.01.259c-.01.09-.01.169-.02.239h-5.785a3.658,3.658,0,0,0,.747,2.33,2.816,2.816,0,0,0,2.23.816,4.348,4.348,0,0,0,1.334-.159,7.382,7.382,0,0,0,.717-.269l.189.9a4.267,4.267,0,0,1-.836.3,5.152,5.152,0,0,1-1.444.179,4.9,4.9,0,0,1-1.852-.319,3.215,3.215,0,0,1-1.255-.9,3.51,3.51,0,0,1-.717-1.364A6.907,6.907,0,0,1,209.81,64.361Zm5.844-.647a3.246,3.246,0,0,0-.607-2.011,1.957,1.957,0,0,0-1.623-.717,2.286,2.286,0,0,0-1,.219,2.617,2.617,0,0,0-.767.6,2.686,2.686,0,0,0-.508.866,3.623,3.623,0,0,0-.219,1.035h4.719Z" transform="translate(-201.267 -56.127)" fill="#fff"/>
        <path id="Path_2589" data-name="Path 2589" d="M225.392,68.205c-.309.09-.717.179-1.245.289a9.458,9.458,0,0,1-1.912.159,3.864,3.864,0,0,1-1.543-.269,2.514,2.514,0,0,1-1.006-.767,3,3,0,0,1-.548-1.195,6.786,6.786,0,0,1-.169-1.543V60.26h1.035v4.281a7.017,7.017,0,0,0,.129,1.484,2.2,2.2,0,0,0,.418.976,1.6,1.6,0,0,0,.737.538,3.224,3.224,0,0,0,1.105.169,9.368,9.368,0,0,0,1.274-.08,3.642,3.642,0,0,0,.687-.139V60.26h1.035Z" transform="translate(-201.307 -56.128)" fill="#fff"/>
        <path id="Path_2590" data-name="Path 2590" d="M234.316,60.06a3.7,3.7,0,0,1,1.374.229,2.477,2.477,0,0,1,.916.637,2.427,2.427,0,0,1,.508.966,4.714,4.714,0,0,1,.159,1.215v5.2a3.776,3.776,0,0,1-.458.1c-.2.04-.438.08-.7.119s-.558.08-.886.1-.657.04-1,.04a5.064,5.064,0,0,1-1.2-.139,2.665,2.665,0,0,1-.956-.458,2.1,2.1,0,0,1-.637-.8,2.824,2.824,0,0,1-.229-1.185,2.4,2.4,0,0,1,.259-1.145,2.168,2.168,0,0,1,.717-.787,3.3,3.3,0,0,1,1.1-.458,6.1,6.1,0,0,1,1.384-.139c.149,0,.309.01.468.02s.329.04.478.06.289.05.4.08a1.691,1.691,0,0,1,.229.07v-.5a5.7,5.7,0,0,0-.06-.836,1.888,1.888,0,0,0-.279-.737,1.582,1.582,0,0,0-.607-.528,2.32,2.32,0,0,0-1.026-.2,5.084,5.084,0,0,0-1.354.129q-.448.134-.657.209l-.139-.906a3.832,3.832,0,0,1,.836-.239A6.742,6.742,0,0,1,234.316,60.06Zm.1,7.686c.408,0,.757-.01,1.055-.04s.558-.06.777-.1v-2.9a3.546,3.546,0,0,0-.558-.169,4.882,4.882,0,0,0-1.055-.09,5.568,5.568,0,0,0-.8.06,2.462,2.462,0,0,0-.767.239,1.639,1.639,0,0,0-.577.5,1.443,1.443,0,0,0-.219.846,1.8,1.8,0,0,0,.149.777,1.331,1.331,0,0,0,.428.508,1.847,1.847,0,0,0,.667.279A4.139,4.139,0,0,0,234.416,67.746Z" transform="translate(-201.36 -56.127)" fill="#fff"/>
        <path id="Path_2591" data-name="Path 2591" d="M239.96,60.538c.309-.08.707-.179,1.2-.289a9.233,9.233,0,0,1,1.922-.159,2.664,2.664,0,0,1,2.26.906c.05-.04.159-.119.309-.219a4.335,4.335,0,0,1,.577-.309,4.616,4.616,0,0,1,.816-.269,4.748,4.748,0,0,1,1.045-.11,3.5,3.5,0,0,1,1.523.279,2.145,2.145,0,0,1,.9.777,3.145,3.145,0,0,1,.428,1.2,10.371,10.371,0,0,1,.11,1.533v4.6h-1.035V64.212a11.75,11.75,0,0,0-.07-1.414,2.62,2.62,0,0,0-.289-.986,1.357,1.357,0,0,0-.617-.587,2.367,2.367,0,0,0-1.035-.2,3.86,3.86,0,0,0-.866.09,3.382,3.382,0,0,0-.677.219,2.24,2.24,0,0,0-.468.259c-.12.08-.209.149-.259.189a4.788,4.788,0,0,1,.219.936,7.693,7.693,0,0,1,.07,1.1v4.68h-1.035V64.222a11.758,11.758,0,0,0-.07-1.414,2.617,2.617,0,0,0-.3-.986,1.431,1.431,0,0,0-.627-.587,2.5,2.5,0,0,0-1.075-.2,9,9,0,0,0-1.264.08,3.152,3.152,0,0,0-.657.139v7.228H239.96Z" transform="translate(-201.399 -56.127)" fill="#fff"/>
        <path id="Path_2592" data-name="Path 2592" d="M254.806,60.73a3.425,3.425,0,0,1,.866-.438,4.007,4.007,0,0,1,1.414-.229,3.775,3.775,0,0,1,1.583.319,3.248,3.248,0,0,1,1.175.9,3.977,3.977,0,0,1,.727,1.364,5.647,5.647,0,0,1,.249,1.732,5.145,5.145,0,0,1-.3,1.8,3.869,3.869,0,0,1-.826,1.354,3.64,3.64,0,0,1-1.274.856,4.4,4.4,0,0,1-1.653.3,10,10,0,0,1-1.812-.139,11.629,11.629,0,0,1-1.175-.3V56.3l1.035-.189v4.62Zm0,6.77a5.514,5.514,0,0,0,.707.149,8.259,8.259,0,0,0,1.235.07,2.8,2.8,0,0,0,2.151-.866,3.535,3.535,0,0,0,.816-2.489,6,6,0,0,0-.139-1.294A3.139,3.139,0,0,0,259.117,62a2.287,2.287,0,0,0-.836-.727A2.786,2.786,0,0,0,257,61.009a3.123,3.123,0,0,0-.7.07,5.017,5.017,0,0,0-.617.179,4.7,4.7,0,0,0-.5.239c-.139.08-.259.169-.358.239V67.5Z" transform="translate(-201.459 -56.11)" fill="#fff"/>
        <path id="Path_2593" data-name="Path 2593" d="M264.373,57.757a.78.78,0,0,1-.219.577.769.769,0,0,1-.538.219.729.729,0,0,1-.538-.219.758.758,0,0,1-.219-.577.744.744,0,0,1,.219-.577.769.769,0,0,1,.538-.219.729.729,0,0,1,.538.219A.744.744,0,0,1,264.373,57.757Zm-.239,10.723H263.1V60.246h1.035Z" transform="translate(-201.498 -56.114)" fill="#fff"/>
        <path id="Path_2594" data-name="Path 2594" d="M266.4,64.361a5.2,5.2,0,0,1,.309-1.892,4.079,4.079,0,0,1,.816-1.344,3.336,3.336,0,0,1,1.145-.806A3.424,3.424,0,0,1,270,60.06a3.1,3.1,0,0,1,2.409.986,4.42,4.42,0,0,1,.9,3.047,2.252,2.252,0,0,1-.01.259c-.01.09-.01.169-.02.239H267.5a3.658,3.658,0,0,0,.747,2.33,2.816,2.816,0,0,0,2.23.816,4.348,4.348,0,0,0,1.334-.159,7.383,7.383,0,0,0,.717-.269l.189.9a4.267,4.267,0,0,1-.836.3,5.152,5.152,0,0,1-1.444.179,4.9,4.9,0,0,1-1.852-.319,3.215,3.215,0,0,1-1.255-.9,3.51,3.51,0,0,1-.717-1.364A6.908,6.908,0,0,1,266.4,64.361Zm5.844-.647a3.246,3.246,0,0,0-.607-2.011,1.957,1.957,0,0,0-1.623-.717,2.287,2.287,0,0,0-1,.219,2.616,2.616,0,0,0-.767.6,2.686,2.686,0,0,0-.508.866,3.622,3.622,0,0,0-.219,1.035h4.719Z" transform="translate(-201.514 -56.127)" fill="#fff"/>
        <path id="Path_2595" data-name="Path 2595" d="M275.66,60.538c.309-.08.727-.179,1.245-.289a9.458,9.458,0,0,1,1.912-.159,4.054,4.054,0,0,1,1.573.269,2.386,2.386,0,0,1,1.006.777,3.253,3.253,0,0,1,.538,1.2,6.8,6.8,0,0,1,.159,1.543v4.6h-1.036V64.212a7.832,7.832,0,0,0-.119-1.484,2.354,2.354,0,0,0-.4-.986,1.506,1.506,0,0,0-.737-.548,3.368,3.368,0,0,0-1.135-.169,9.212,9.212,0,0,0-1.264.08,4.03,4.03,0,0,0-.7.139v7.228H275.67V60.538Z" transform="translate(-201.554 -56.127)" fill="#fff"/>
        <path id="Path_2596" data-name="Path 2596" d="M285.735,60.249h3.286v.876h-3.286v4.381a4.4,4.4,0,0,0,.119,1.135,1.6,1.6,0,0,0,.339.677,1.068,1.068,0,0,0,.538.319,3.045,3.045,0,0,0,.7.08,3.083,3.083,0,0,0,1.055-.149,3.762,3.762,0,0,0,.617-.279l.259.856a3.429,3.429,0,0,1-.777.329,3.935,3.935,0,0,1-1.215.179,3.7,3.7,0,0,1-1.284-.2,1.835,1.835,0,0,1-.826-.607,2.5,2.5,0,0,1-.438-1.016,6.708,6.708,0,0,1-.129-1.434V57.809l1.035-.189v2.629Z" transform="translate(-201.593 -56.117)" fill="#fff"/>
        <path id="Path_2597" data-name="Path 2597" d="M290.46,64.361a5.2,5.2,0,0,1,.309-1.892,4.08,4.08,0,0,1,.816-1.344,3.337,3.337,0,0,1,1.145-.806,3.424,3.424,0,0,1,1.334-.259,3.1,3.1,0,0,1,2.409.986,4.42,4.42,0,0,1,.9,3.047,2.252,2.252,0,0,1-.01.259c-.01.09-.01.169-.02.239h-5.785a3.657,3.657,0,0,0,.747,2.33,2.816,2.816,0,0,0,2.23.816,4.348,4.348,0,0,0,1.334-.159,7.393,7.393,0,0,0,.717-.269l.189.9a4.266,4.266,0,0,1-.836.3,5.152,5.152,0,0,1-1.444.179,4.9,4.9,0,0,1-1.852-.319,3.215,3.215,0,0,1-1.254-.9,3.51,3.51,0,0,1-.717-1.364A6.907,6.907,0,0,1,290.46,64.361Zm5.844-.647A3.246,3.246,0,0,0,295.7,61.7a1.957,1.957,0,0,0-1.623-.717,2.287,2.287,0,0,0-1,.219,2.617,2.617,0,0,0-.767.6,2.687,2.687,0,0,0-.508.866,3.623,3.623,0,0,0-.219,1.035H296.3Z" transform="translate(-201.618 -56.127)" fill="#fff"/>
        <path id="Path_2598" data-name="Path 2598" d="M309.919,68.217a7.962,7.962,0,0,1-1.175.3,9.233,9.233,0,0,1-1.812.139,4.4,4.4,0,0,1-1.653-.3,3.512,3.512,0,0,1-1.274-.856,3.962,3.962,0,0,1-.826-1.354,5.105,5.105,0,0,1-.3-1.8,5.648,5.648,0,0,1,.249-1.732,4.069,4.069,0,0,1,.727-1.364,3.39,3.39,0,0,1,1.175-.9,3.775,3.775,0,0,1,1.583-.319,4.047,4.047,0,0,1,1.414.229,3.425,3.425,0,0,1,.866.438V56.3l1.035-.189V68.217Zm-1.035-6.482a2.8,2.8,0,0,0-.358-.239,3.329,3.329,0,0,0-.5-.239,3.726,3.726,0,0,0-.617-.179,3.183,3.183,0,0,0-.7-.07,2.785,2.785,0,0,0-1.284.269,2.2,2.2,0,0,0-.836.727,2.955,2.955,0,0,0-.458,1.065A5.433,5.433,0,0,0,304,64.364a3.473,3.473,0,0,0,.816,2.489,2.813,2.813,0,0,0,2.151.866,8.348,8.348,0,0,0,1.235-.07,5.515,5.515,0,0,0,.707-.149V61.735Z" transform="translate(-201.672 -56.11)" fill="#fff"/>
        <path id="Path_2599" data-name="Path 2599" d="M313.973,57.757a.78.78,0,0,1-.219.577.769.769,0,0,1-.538.219.728.728,0,0,1-.538-.219.758.758,0,0,1-.219-.577.744.744,0,0,1,.219-.577.769.769,0,0,1,.538-.219.728.728,0,0,1,.538.219A.78.78,0,0,1,313.973,57.757Zm-.239,10.723H312.7V60.246h1.036Z" transform="translate(-201.714 -56.114)" fill="#fff"/>
        <path id="Path_2600" data-name="Path 2600" d="M321.854,67.538a1.9,1.9,0,0,1-.289.179c-.129.07-.289.139-.468.219a3.457,3.457,0,0,1-.637.179,4.868,4.868,0,0,1-.806.07,4.625,4.625,0,0,1-1.384-.219,3,3,0,0,1-1.175-.7,3.329,3.329,0,0,1-.806-1.235,5.028,5.028,0,0,1-.3-1.842,4.744,4.744,0,0,1,.269-1.623,3.684,3.684,0,0,1,.777-1.294,3.576,3.576,0,0,1,1.225-.856,4.225,4.225,0,0,1,1.633-.309,9.123,9.123,0,0,1,1.842.149,11.219,11.219,0,0,1,1.135.3v7.517a3.243,3.243,0,0,1-.956,2.638,4.461,4.461,0,0,1-2.887.787,7.983,7.983,0,0,1-1.444-.119,7.416,7.416,0,0,1-1.105-.279l.209-.936a4.464,4.464,0,0,0,1.045.3,6.66,6.66,0,0,0,1.334.129,3.266,3.266,0,0,0,2.131-.568,2.445,2.445,0,0,0,.657-1.932v-.558Zm-.01-6.283c-.179-.05-.418-.1-.7-.149a7.689,7.689,0,0,0-1.225-.07,2.924,2.924,0,0,0-1.185.229,2.484,2.484,0,0,0-.886.657,2.824,2.824,0,0,0-.558,1.006,4.044,4.044,0,0,0-.189,1.284,3.9,3.9,0,0,0,.219,1.394,2.674,2.674,0,0,0,.577.946,2.2,2.2,0,0,0,.816.538,2.773,2.773,0,0,0,.936.169,3.778,3.778,0,0,0,1.284-.209,2.87,2.87,0,0,0,.9-.478V61.255Z" transform="translate(-201.729 -56.127)" fill="#fff"/>
        <path id="Path_2601" data-name="Path 2601" d="M326.933,57.757a.78.78,0,0,1-.219.577.769.769,0,0,1-.538.219.729.729,0,0,1-.538-.219.758.758,0,0,1-.219-.577.744.744,0,0,1,.219-.577.769.769,0,0,1,.538-.219.729.729,0,0,1,.538.219A.781.781,0,0,1,326.933,57.757Zm-.239,10.723h-1.035V60.246h1.035Z" transform="translate(-201.77 -56.114)" fill="#fff"/>
        <path id="Path_2602" data-name="Path 2602" d="M330.425,60.249h3.286v.876h-3.286v4.381a4.4,4.4,0,0,0,.119,1.135,1.6,1.6,0,0,0,.339.677,1.067,1.067,0,0,0,.538.319,3.045,3.045,0,0,0,.7.08,3.083,3.083,0,0,0,1.055-.149,3.758,3.758,0,0,0,.617-.279l.259.856a3.428,3.428,0,0,1-.777.329,3.935,3.935,0,0,1-1.215.179,3.7,3.7,0,0,1-1.284-.2,1.835,1.835,0,0,1-.826-.607,2.5,2.5,0,0,1-.438-1.016,6.712,6.712,0,0,1-.129-1.434V57.809l1.035-.189v2.629Z" transform="translate(-201.788 -56.117)" fill="#fff"/>
        <path id="Path_2603" data-name="Path 2603" d="M338.136,60.06a3.7,3.7,0,0,1,1.374.229,2.478,2.478,0,0,1,.916.637,2.427,2.427,0,0,1,.508.966,4.712,4.712,0,0,1,.159,1.215v5.2a3.777,3.777,0,0,1-.458.1c-.2.04-.438.08-.7.119s-.558.08-.886.1-.657.04-1,.04a5.064,5.064,0,0,1-1.2-.139,2.665,2.665,0,0,1-.956-.458,2.1,2.1,0,0,1-.637-.8,2.824,2.824,0,0,1-.229-1.185,2.4,2.4,0,0,1,.259-1.145,2.168,2.168,0,0,1,.717-.787,3.3,3.3,0,0,1,1.1-.458,6.1,6.1,0,0,1,1.384-.139c.149,0,.309.01.468.02s.329.04.478.06.289.05.4.08a1.694,1.694,0,0,1,.229.07v-.5a5.7,5.7,0,0,0-.06-.836,1.889,1.889,0,0,0-.279-.737,1.583,1.583,0,0,0-.607-.528,2.32,2.32,0,0,0-1.025-.2,5.084,5.084,0,0,0-1.354.129q-.448.134-.657.209l-.139-.906a3.832,3.832,0,0,1,.836-.239A6.81,6.81,0,0,1,338.136,60.06Zm.1,7.686c.408,0,.757-.01,1.055-.04s.558-.06.777-.1v-2.9a3.546,3.546,0,0,0-.558-.169,4.881,4.881,0,0,0-1.055-.09,5.566,5.566,0,0,0-.8.06,2.461,2.461,0,0,0-.767.239,1.639,1.639,0,0,0-.577.5,1.443,1.443,0,0,0-.219.846,1.8,1.8,0,0,0,.149.777,1.331,1.331,0,0,0,.428.508,1.848,1.848,0,0,0,.667.279A4.138,4.138,0,0,0,338.236,67.746Z" transform="translate(-201.812 -56.127)" fill="#fff"/>
        <path id="Path_2604" data-name="Path 2604" d="M345.871,68.615a3.475,3.475,0,0,1-.916-.139,1.636,1.636,0,0,1-.657-.368,1.546,1.546,0,0,1-.4-.637,3.022,3.022,0,0,1-.139-.976V56.3l1.036-.189V66.465a2.105,2.105,0,0,0,.07.617.793.793,0,0,0,.219.368.859.859,0,0,0,.378.2,4.818,4.818,0,0,0,.548.11Z" transform="translate(-201.85 -56.11)" fill="#fff"/>
        <path id="Path_2605" data-name="Path 2605" d="M351.51,60.538c.309-.08.707-.179,1.2-.289a9.234,9.234,0,0,1,1.922-.159A2.664,2.664,0,0,1,356.9,61c.05-.04.159-.119.309-.219a4.341,4.341,0,0,1,.577-.309,4.617,4.617,0,0,1,.816-.269,4.747,4.747,0,0,1,1.045-.11,3.5,3.5,0,0,1,1.523.279,2.144,2.144,0,0,1,.9.777,3.146,3.146,0,0,1,.428,1.2,10.373,10.373,0,0,1,.109,1.533v4.6h-1.035V64.212a11.747,11.747,0,0,0-.07-1.414,2.619,2.619,0,0,0-.289-.986,1.357,1.357,0,0,0-.617-.587,2.367,2.367,0,0,0-1.036-.2,3.859,3.859,0,0,0-.866.09,3.381,3.381,0,0,0-.677.219,2.24,2.24,0,0,0-.468.259c-.119.08-.209.149-.259.189a4.785,4.785,0,0,1,.219.936,7.7,7.7,0,0,1,.07,1.1v4.68h-1.036V64.222a11.749,11.749,0,0,0-.07-1.414,2.616,2.616,0,0,0-.3-.986,1.43,1.43,0,0,0-.627-.587,2.5,2.5,0,0,0-1.075-.2,9,9,0,0,0-1.264.08,3.152,3.152,0,0,0-.657.139v7.228H351.51V60.538Z" transform="translate(-201.884 -56.127)" fill="#fff"/>
        <path id="Path_2606" data-name="Path 2606" d="M367.816,60.06a3.7,3.7,0,0,1,1.374.229,2.477,2.477,0,0,1,.916.637,2.427,2.427,0,0,1,.508.966,4.715,4.715,0,0,1,.159,1.215v5.2a3.776,3.776,0,0,1-.458.1c-.2.04-.438.08-.7.119s-.558.08-.886.1-.657.04-1,.04a5.064,5.064,0,0,1-1.2-.139,2.665,2.665,0,0,1-.956-.458,2.1,2.1,0,0,1-.637-.8,2.823,2.823,0,0,1-.229-1.185,2.4,2.4,0,0,1,.259-1.145,2.169,2.169,0,0,1,.717-.787,3.3,3.3,0,0,1,1.1-.458,6.1,6.1,0,0,1,1.384-.139c.149,0,.309.01.468.02s.329.04.478.06.289.05.4.08a1.7,1.7,0,0,1,.229.07v-.5a5.7,5.7,0,0,0-.06-.836,1.889,1.889,0,0,0-.279-.737,1.582,1.582,0,0,0-.607-.528,2.32,2.32,0,0,0-1.026-.2,5.084,5.084,0,0,0-1.354.129q-.448.134-.657.209l-.139-.906a3.832,3.832,0,0,1,.836-.239A6.74,6.74,0,0,1,367.816,60.06Zm.1,7.686c.408,0,.757-.01,1.055-.04s.558-.06.777-.1v-2.9a3.544,3.544,0,0,0-.558-.169,4.882,4.882,0,0,0-1.055-.09,5.568,5.568,0,0,0-.8.06,2.462,2.462,0,0,0-.767.239,1.638,1.638,0,0,0-.577.5,1.443,1.443,0,0,0-.219.846,1.8,1.8,0,0,0,.149.777,1.331,1.331,0,0,0,.428.508,1.847,1.847,0,0,0,.667.279A4.138,4.138,0,0,0,367.916,67.746Z" transform="translate(-201.941 -56.127)" fill="#fff"/>
        <path id="Path_2607" data-name="Path 2607" d="M374.743,57.757a.781.781,0,0,1-.219.577.769.769,0,0,1-.538.219.729.729,0,0,1-.538-.219.758.758,0,0,1-.219-.577.744.744,0,0,1,.219-.577.769.769,0,0,1,.538-.219.729.729,0,0,1,.538.219A.781.781,0,0,1,374.743,57.757ZM374.5,68.48h-1.035V60.246H374.5Z" transform="translate(-201.978 -56.114)" fill="#fff"/>
        <path id="Path_2608" data-name="Path 2608" d="M378.94,67.756a3.207,3.207,0,0,0,1.474-.3,1.026,1.026,0,0,0,.577-1,1.462,1.462,0,0,0-.1-.577,1.132,1.132,0,0,0-.339-.428,2.98,2.98,0,0,0-.627-.368c-.259-.119-.578-.259-.966-.418-.309-.129-.6-.259-.876-.388a3.85,3.85,0,0,1-.737-.458,2.2,2.2,0,0,1-.508-.627,1.894,1.894,0,0,1-.189-.9,1.983,1.983,0,0,1,.757-1.623,3.163,3.163,0,0,1,2.081-.617,5.962,5.962,0,0,1,1.394.139,4.276,4.276,0,0,1,.777.259l-.239.926c-.129-.06-.339-.149-.647-.259a4.139,4.139,0,0,0-1.334-.159,2.717,2.717,0,0,0-.657.07,1.911,1.911,0,0,0-.548.219,1.146,1.146,0,0,0-.378.378,1,1,0,0,0-.139.568,1.152,1.152,0,0,0,.129.577,1.265,1.265,0,0,0,.378.428,3.141,3.141,0,0,0,.607.339c.239.11.508.219.816.348s.627.259.916.388a3.387,3.387,0,0,1,.777.478,2.177,2.177,0,0,1,.538.667,2.051,2.051,0,0,1,.209.976,1.926,1.926,0,0,1-.836,1.693,4.036,4.036,0,0,1-2.29.577,5.789,5.789,0,0,1-1.653-.179,7.251,7.251,0,0,1-.767-.279l.269-.936a1.025,1.025,0,0,0,.209.1c.109.04.249.1.428.159a5.235,5.235,0,0,0,1.493.219Z" transform="translate(-201.993 -56.127)" fill="#fff"/>
        <path id="Path_2609" data-name="Path 2609" d="M267.069,86.956a3.207,3.207,0,0,0,1.474-.3,1.026,1.026,0,0,0,.577-1,1.462,1.462,0,0,0-.1-.577,1.133,1.133,0,0,0-.338-.428,2.981,2.981,0,0,0-.627-.368c-.259-.119-.577-.259-.966-.418-.309-.129-.6-.259-.876-.388a3.847,3.847,0,0,1-.737-.458,2.2,2.2,0,0,1-.508-.627,1.893,1.893,0,0,1-.189-.9,1.983,1.983,0,0,1,.757-1.623,3.163,3.163,0,0,1,2.081-.617,5.961,5.961,0,0,1,1.394.139,4.272,4.272,0,0,1,.777.259l-.239.926c-.129-.06-.339-.149-.647-.259a4.139,4.139,0,0,0-1.334-.159,2.716,2.716,0,0,0-.657.07,1.911,1.911,0,0,0-.548.219,1.145,1.145,0,0,0-.378.378,1,1,0,0,0-.139.568,1.152,1.152,0,0,0,.129.577,1.265,1.265,0,0,0,.378.428,3.14,3.14,0,0,0,.607.339c.239.11.508.219.816.348s.627.259.916.388a3.386,3.386,0,0,1,.777.478,2.177,2.177,0,0,1,.538.667,2.051,2.051,0,0,1,.209.976,1.926,1.926,0,0,1-.836,1.693,4.036,4.036,0,0,1-2.29.577,5.79,5.79,0,0,1-1.653-.179,7.258,7.258,0,0,1-.767-.279l.269-.936a1.029,1.029,0,0,0,.209.1c.109.04.249.1.428.159a5.237,5.237,0,0,0,1.493.219Z" transform="translate(-201.506 -56.211)" fill="#fff"/>
        <path id="Path_2610" data-name="Path 2610" d="M273.513,76.957a.78.78,0,0,1-.219.577.769.769,0,0,1-.538.219.729.729,0,0,1-.538-.219.758.758,0,0,1-.219-.577.744.744,0,0,1,.219-.577.769.769,0,0,1,.538-.219.729.729,0,0,1,.538.219A.78.78,0,0,1,273.513,76.957Zm-.239,10.723h-1.035V79.446h1.035Z" transform="translate(-201.538 -56.197)" fill="#fff"/>
        <path id="Path_2611" data-name="Path 2611" d="M276.03,79.738c.309-.08.707-.179,1.2-.289a9.234,9.234,0,0,1,1.922-.159,2.664,2.664,0,0,1,2.26.906c.05-.04.159-.119.309-.219a4.334,4.334,0,0,1,.577-.309,4.617,4.617,0,0,1,.816-.269,4.747,4.747,0,0,1,1.045-.11,3.5,3.5,0,0,1,1.523.279,2.145,2.145,0,0,1,.9.777,3.146,3.146,0,0,1,.428,1.2,10.373,10.373,0,0,1,.109,1.533v4.6h-1.035V83.412a11.747,11.747,0,0,0-.07-1.414,2.619,2.619,0,0,0-.289-.986,1.357,1.357,0,0,0-.617-.587,2.367,2.367,0,0,0-1.035-.2,3.86,3.86,0,0,0-.866.09,3.38,3.38,0,0,0-.677.219,2.24,2.24,0,0,0-.468.259c-.119.08-.209.149-.259.189a4.787,4.787,0,0,1,.219.936,7.7,7.7,0,0,1,.07,1.1v4.68h-1.035V83.422a11.755,11.755,0,0,0-.07-1.414,2.616,2.616,0,0,0-.3-.986,1.43,1.43,0,0,0-.627-.587,2.5,2.5,0,0,0-1.075-.2,9,9,0,0,0-1.264.08,3.151,3.151,0,0,0-.657.139v7.228H276.03V79.738Z" transform="translate(-201.555 -56.211)" fill="#fff"/>
        <path id="Path_2612" data-name="Path 2612" d="M290.875,90.64H289.84v-10.9a7.963,7.963,0,0,1,1.175-.3,9.233,9.233,0,0,1,1.812-.139,4.4,4.4,0,0,1,1.653.3,3.512,3.512,0,0,1,1.274.856,3.87,3.87,0,0,1,.826,1.354,5.1,5.1,0,0,1,.3,1.8,5.647,5.647,0,0,1-.249,1.732A3.928,3.928,0,0,1,295.9,86.7a3.365,3.365,0,0,1-1.175.886,3.688,3.688,0,0,1-1.583.319,4.047,4.047,0,0,1-1.414-.229,3.425,3.425,0,0,1-.866-.438V90.64Zm0-4.431a2.8,2.8,0,0,0,.358.239,2.576,2.576,0,0,0,.5.239,3.727,3.727,0,0,0,.617.179,3.182,3.182,0,0,0,.7.07,2.922,2.922,0,0,0,1.284-.259,2.262,2.262,0,0,0,.836-.717,2.955,2.955,0,0,0,.458-1.065,5.487,5.487,0,0,0,.139-1.294,3.473,3.473,0,0,0-.816-2.489,2.8,2.8,0,0,0-2.151-.866,8.259,8.259,0,0,0-1.235.07,5.518,5.518,0,0,0-.707.149V86.21Z" transform="translate(-201.616 -56.211)" fill="#fff"/>
        <path id="Path_2613" data-name="Path 2613" d="M301.251,87.815a3.474,3.474,0,0,1-.916-.139,1.636,1.636,0,0,1-.657-.368,1.546,1.546,0,0,1-.4-.637,3.022,3.022,0,0,1-.139-.976V75.5l1.035-.189V85.665a2.105,2.105,0,0,0,.07.617.792.792,0,0,0,.219.368.859.859,0,0,0,.378.2,4.813,4.813,0,0,0,.548.11Z" transform="translate(-201.656 -56.194)" fill="#fff"/>
        <path id="Path_2614" data-name="Path 2614" d="M302.75,83.561a5.2,5.2,0,0,1,.309-1.892,4.079,4.079,0,0,1,.816-1.344,3.337,3.337,0,0,1,1.145-.806,3.424,3.424,0,0,1,1.334-.259,3.1,3.1,0,0,1,2.41.986,4.42,4.42,0,0,1,.9,3.047,2.245,2.245,0,0,1-.01.259c-.01.09-.01.169-.02.239h-5.785a3.657,3.657,0,0,0,.747,2.33,2.816,2.816,0,0,0,2.23.816,4.348,4.348,0,0,0,1.334-.159,7.384,7.384,0,0,0,.717-.269l.189.9a4.267,4.267,0,0,1-.836.3,5.152,5.152,0,0,1-1.444.179,4.9,4.9,0,0,1-1.852-.319,3.214,3.214,0,0,1-1.255-.9,3.51,3.51,0,0,1-.717-1.364A6.91,6.91,0,0,1,302.75,83.561Zm5.845-.647a3.246,3.246,0,0,0-.607-2.011,1.957,1.957,0,0,0-1.623-.717,2.287,2.287,0,0,0-1,.219,2.617,2.617,0,0,0-.767.6,2.687,2.687,0,0,0-.508.866,3.624,3.624,0,0,0-.219,1.035h4.719Z" transform="translate(-201.672 -56.211)" fill="#fff"/>
        <path id="Path_2615" data-name="Path 2615" d="M313.7,86.956a3.207,3.207,0,0,0,1.474-.3,1.026,1.026,0,0,0,.577-1,1.462,1.462,0,0,0-.1-.577,1.132,1.132,0,0,0-.339-.428,2.979,2.979,0,0,0-.627-.368c-.259-.119-.577-.259-.966-.418-.309-.129-.6-.259-.876-.388a3.848,3.848,0,0,1-.737-.458,2.2,2.2,0,0,1-.508-.627,1.894,1.894,0,0,1-.189-.9,1.983,1.983,0,0,1,.757-1.623,3.163,3.163,0,0,1,2.081-.617,5.962,5.962,0,0,1,1.394.139,4.273,4.273,0,0,1,.777.259l-.239.926c-.129-.06-.339-.149-.647-.259a4.139,4.139,0,0,0-1.334-.159,2.717,2.717,0,0,0-.657.07,1.911,1.911,0,0,0-.548.219,1.145,1.145,0,0,0-.378.378,1,1,0,0,0-.139.568,1.152,1.152,0,0,0,.129.577,1.265,1.265,0,0,0,.378.428,3.141,3.141,0,0,0,.607.339c.239.11.508.219.816.348s.627.259.916.388a3.386,3.386,0,0,1,.777.478,2.176,2.176,0,0,1,.538.667,2.051,2.051,0,0,1,.209.976,1.926,1.926,0,0,1-.836,1.693,4.036,4.036,0,0,1-2.29.577,5.79,5.79,0,0,1-1.653-.179,7.257,7.257,0,0,1-.767-.279l.269-.936a1.028,1.028,0,0,0,.209.1c.109.04.249.1.428.159a5.236,5.236,0,0,0,1.493.219Z" transform="translate(-201.709 -56.211)" fill="#fff"/>
        <path id="Path_2616" data-name="Path 2616" d="M322.01,83.561a5.2,5.2,0,0,1,.309-1.892,4.079,4.079,0,0,1,.816-1.344,3.336,3.336,0,0,1,1.145-.806,3.424,3.424,0,0,1,1.334-.259,3.1,3.1,0,0,1,2.41.986,4.42,4.42,0,0,1,.9,3.047,2.259,2.259,0,0,1-.01.259c-.01.09-.01.169-.02.239h-5.785a3.658,3.658,0,0,0,.747,2.33,2.816,2.816,0,0,0,2.23.816,4.347,4.347,0,0,0,1.334-.159,7.386,7.386,0,0,0,.717-.269l.189.9a4.268,4.268,0,0,1-.836.3,5.152,5.152,0,0,1-1.444.179,4.9,4.9,0,0,1-1.852-.319,3.215,3.215,0,0,1-1.255-.9,3.51,3.51,0,0,1-.717-1.364A6.907,6.907,0,0,1,322.01,83.561Zm5.844-.647a3.246,3.246,0,0,0-.607-2.011,1.957,1.957,0,0,0-1.623-.717,2.287,2.287,0,0,0-1,.219,2.617,2.617,0,0,0-.767.6,2.687,2.687,0,0,0-.508.866,3.623,3.623,0,0,0-.219,1.035h4.719Z" transform="translate(-201.755 -56.211)" fill="#fff"/>
        <path id="Path_2617" data-name="Path 2617" d="M336.61,86.956a3.207,3.207,0,0,0,1.474-.3,1.026,1.026,0,0,0,.577-1,1.462,1.462,0,0,0-.1-.577,1.133,1.133,0,0,0-.339-.428,2.98,2.98,0,0,0-.627-.368c-.259-.119-.577-.259-.966-.418-.309-.129-.6-.259-.876-.388a3.849,3.849,0,0,1-.737-.458,2.2,2.2,0,0,1-.508-.627,1.893,1.893,0,0,1-.189-.9,1.983,1.983,0,0,1,.757-1.623,3.163,3.163,0,0,1,2.081-.617,5.962,5.962,0,0,1,1.394.139,4.272,4.272,0,0,1,.777.259l-.239.926c-.129-.06-.339-.149-.647-.259a4.138,4.138,0,0,0-1.334-.159,2.717,2.717,0,0,0-.657.07,1.91,1.91,0,0,0-.548.219,1.145,1.145,0,0,0-.378.378,1,1,0,0,0-.139.568,1.152,1.152,0,0,0,.129.577,1.265,1.265,0,0,0,.378.428,3.14,3.14,0,0,0,.607.339c.239.11.508.219.816.348s.627.259.916.388a3.386,3.386,0,0,1,.777.478,2.177,2.177,0,0,1,.538.667,2.051,2.051,0,0,1,.209.976,1.926,1.926,0,0,1-.836,1.693,4.036,4.036,0,0,1-2.29.577,5.789,5.789,0,0,1-1.653-.179,7.254,7.254,0,0,1-.767-.279l.269-.936a1.028,1.028,0,0,0,.209.1c.11.04.249.1.428.159a5.237,5.237,0,0,0,1.493.219Z" transform="translate(-201.809 -56.211)" fill="#fff"/>
        <path id="Path_2618" data-name="Path 2618" d="M341.27,83.561a5.2,5.2,0,0,1,.309-1.892,4.08,4.08,0,0,1,.816-1.344,3.336,3.336,0,0,1,1.145-.806,3.424,3.424,0,0,1,1.334-.259,3.1,3.1,0,0,1,2.41.986,4.42,4.42,0,0,1,.9,3.047,2.252,2.252,0,0,1-.01.259c-.01.09-.01.169-.02.239h-5.785a3.658,3.658,0,0,0,.747,2.33,2.816,2.816,0,0,0,2.23.816,4.347,4.347,0,0,0,1.334-.159,7.387,7.387,0,0,0,.717-.269l.189.9a4.266,4.266,0,0,1-.836.3,5.152,5.152,0,0,1-1.444.179,4.9,4.9,0,0,1-1.852-.319,3.215,3.215,0,0,1-1.255-.9,3.511,3.511,0,0,1-.717-1.364A7.4,7.4,0,0,1,341.27,83.561Zm5.854-.647a3.246,3.246,0,0,0-.607-2.011,1.957,1.957,0,0,0-1.623-.717,2.287,2.287,0,0,0-1,.219,2.616,2.616,0,0,0-.767.6,2.686,2.686,0,0,0-.508.866,3.622,3.622,0,0,0-.219,1.035h4.719Z" transform="translate(-201.839 -56.211)" fill="#fff"/>
        <path id="Path_2619" data-name="Path 2619" d="M355.9,86.738a1.9,1.9,0,0,1-.289.179c-.129.07-.289.139-.468.219a3.46,3.46,0,0,1-.637.179,4.869,4.869,0,0,1-.806.07,4.625,4.625,0,0,1-1.384-.219,3,3,0,0,1-1.175-.7,3.328,3.328,0,0,1-.806-1.235,5.027,5.027,0,0,1-.3-1.842,4.745,4.745,0,0,1,.269-1.623,3.684,3.684,0,0,1,.777-1.294,3.576,3.576,0,0,1,1.225-.856,4.225,4.225,0,0,1,1.633-.309,9.123,9.123,0,0,1,1.842.149,11.224,11.224,0,0,1,1.135.3v7.517a3.243,3.243,0,0,1-.956,2.638,4.461,4.461,0,0,1-2.887.787,7.984,7.984,0,0,1-1.444-.119,7.417,7.417,0,0,1-1.105-.279l.209-.936a4.462,4.462,0,0,0,1.045.3,6.661,6.661,0,0,0,1.334.129,3.266,3.266,0,0,0,2.131-.568A2.445,2.445,0,0,0,355.9,87.3v-.558Zm-.02-6.283c-.179-.05-.418-.1-.7-.149a7.69,7.69,0,0,0-1.225-.07,2.924,2.924,0,0,0-1.185.229,2.484,2.484,0,0,0-.886.657,2.825,2.825,0,0,0-.558,1.006,4.044,4.044,0,0,0-.189,1.284,3.9,3.9,0,0,0,.219,1.394,2.674,2.674,0,0,0,.577.946,2.2,2.2,0,0,0,.816.538,2.772,2.772,0,0,0,.936.169,3.778,3.778,0,0,0,1.284-.209,2.869,2.869,0,0,0,.9-.478V80.455Z" transform="translate(-201.877 -56.211)" fill="#fff"/>
        <path id="Path_2620" data-name="Path 2620" d="M366.032,87.405c-.309.09-.717.179-1.245.289a9.458,9.458,0,0,1-1.912.159,3.863,3.863,0,0,1-1.543-.269,2.515,2.515,0,0,1-1.006-.767,3,3,0,0,1-.548-1.195,6.783,6.783,0,0,1-.169-1.543V79.46h1.036v4.281a7.015,7.015,0,0,0,.129,1.484,2.2,2.2,0,0,0,.418.976,1.6,1.6,0,0,0,.737.538,3.224,3.224,0,0,0,1.105.169,9.367,9.367,0,0,0,1.274-.08,3.64,3.64,0,0,0,.687-.139V79.46h1.036Z" transform="translate(-201.919 -56.212)" fill="#fff"/>
        <path id="Path_2621" data-name="Path 2621" d="M371.618,79.3a6.018,6.018,0,0,1,.966.08,3.046,3.046,0,0,1,.627.159l-.209.9a2.645,2.645,0,0,0-.518-.139,5.759,5.759,0,0,0-1.025-.07,4.475,4.475,0,0,0-1.075.1,3.113,3.113,0,0,0-.538.159V87.7H368.81V79.848a7.051,7.051,0,0,1,1.1-.358A6.508,6.508,0,0,1,371.618,79.3Z" transform="translate(-201.959 -56.211)" fill="#fff"/>
        <path id="Path_2622" data-name="Path 2622" d="M381.817,83.581a5.294,5.294,0,0,1-.279,1.772,4.091,4.091,0,0,1-.777,1.354,3.644,3.644,0,0,1-1.185.866,3.865,3.865,0,0,1-3.027,0,3.541,3.541,0,0,1-1.185-.866,3.774,3.774,0,0,1-.777-1.354,5.515,5.515,0,0,1-.279-1.772,5.3,5.3,0,0,1,.279-1.772,4.246,4.246,0,0,1,.777-1.364,3.533,3.533,0,0,1,1.185-.876,3.864,3.864,0,0,1,3.027,0,3.438,3.438,0,0,1,1.185.876,3.818,3.818,0,0,1,.777,1.364A5.294,5.294,0,0,1,381.817,83.581Zm-1.1,0a3.885,3.885,0,0,0-.717-2.459,2.516,2.516,0,0,0-3.883,0,3.884,3.884,0,0,0-.717,2.459,3.816,3.816,0,0,0,.717,2.449,2.533,2.533,0,0,0,3.883,0A3.816,3.816,0,0,0,380.722,83.581Z" transform="translate(-201.983 -56.211)" fill="#fff"/>
      </g>
    </g>
    <rect id="Rectangle_16077" data-name="Rectangle 16077" width="8.383" height="8.363" transform="translate(387.736 2.131)" fill="#fff"/>
  </g>
  <text id="_." data-name="." transform="translate(383.634 85.135)" fill="#fff" font-size="9" font-family="Ubuntu"><tspan x="-1.107" y="0">.</tspan></text>
</svg>
